<svg width="16" height="17" viewBox="0 0 16 17" fill="none" xmlns="http://www.w3.org/2000/svg">
<path fill-rule="evenodd" clip-rule="evenodd" d="M16 6.88045C16.0003 7.81762 15.781 8.74182 15.3598 9.57899C14.9386 10.4162 14.3271 11.143 13.5744 11.7013C12.8216 12.2596 11.9486 12.6338 11.0252 12.794C10.1018 12.9541 9.15376 12.8957 8.257 12.6234L8 12.8804L7 13.8804L6 14.8804H4V16.8804H0V12.8804L4.257 8.62345C4.00745 7.79846 3.93857 6.92939 4.05504 6.07539C4.17152 5.2214 4.47062 4.40252 4.93199 3.67449C5.39336 2.94647 6.00616 2.32639 6.72869 1.85647C7.45122 1.38654 8.26652 1.0778 9.11908 0.951252C9.97164 0.824707 10.8415 0.88333 11.6693 1.12313C12.4972 1.36293 13.2637 1.77828 13.9166 2.34091C14.5696 2.90354 15.0936 3.60024 15.4531 4.38359C15.8127 5.16693 15.9992 6.01854 16 6.88045ZM10 2.88045C9.73478 2.88045 9.48043 2.9858 9.29289 3.17334C9.10536 3.36088 9 3.61523 9 3.88045C9 4.14566 9.10536 4.40002 9.29289 4.58755C9.48043 4.77509 9.73478 4.88045 10 4.88045C10.5304 4.88045 11.0391 5.09116 11.4142 5.46623C11.7893 5.84131 12 6.35001 12 6.88045C12 7.14566 12.1054 7.40002 12.2929 7.58755C12.4804 7.77509 12.7348 7.88045 13 7.88045C13.2652 7.88045 13.5196 7.77509 13.7071 7.58755C13.8946 7.40002 14 7.14566 14 6.88045C14 5.81958 13.5786 4.80216 12.8284 4.05202C12.0783 3.30187 11.0609 2.88045 10 2.88045Z" fill="#FDFDFD"/>
</svg>
